<svg xmlns="http://www.w3.org/2000/svg" viewBox="0 0 1600 1000" role="img" aria-labelledby="title desc">
  <title id="title">Postcard Atlas illustrated horizon</title>
  <desc id="desc">An original abstract illustration of a golden sun over layered green hills and a paper-map pattern.</desc>
  <defs>
    <linearGradient id="sky" x1="0" y1="0" x2="1" y2="1"><stop stop-color="#f0d85a"/><stop offset=".48" stop-color="#9cae6e"/><stop offset="1" stop-color="#26311d"/></linearGradient>
    <pattern id="map" width="100" height="100" patternUnits="userSpaceOnUse"><path d="M0 20h100M0 70h100M30 0v100M80 0v100" fill="none" stroke="#fff8c9" stroke-opacity=".13" stroke-width="2"/></pattern>
  </defs>
  <rect width="1600" height="1000" fill="url(#sky)"/><rect width="1600" height="1000" fill="url(#map)"/>
  <circle cx="1170" cy="270" r="145" fill="#fff8c9" fill-opacity=".8"/>
  <path d="M0 640C230 520 420 730 640 610s395-95 560 30 270 83 400-21v381H0z" fill="#4f5d30"/>
  <path d="M0 760c260-130 424 40 660-95 245-141 420 99 620-24 112-68 223-64 320-10v369H0z" fill="#262c1b"/>
  <path d="M170 770c280-70 570-50 890-170" fill="none" stroke="#f0d85a" stroke-opacity=".72" stroke-width="12" stroke-linecap="round" stroke-dasharray="12 25"/>
</svg>
